<?xml version="1.0" encoding="UTF-8"?>
<svg id="a" data-name="Layer 1" xmlns="http://www.w3.org/2000/svg" width="6in" height="1.5in" viewBox="0 0 432 108">
  <path d="M10.27708,95.757l-1.278,4.743H397.82606l1.27803-4.743H10.27708Z" fill="#fff"/>
  <path d="M108.58108,67.104c-2.643-.372-5.265,1.449-6.552,2.526l.315-2.433h-6.504l-4.347,18.126h6.945l.075-.297c.642-2.496,2.616-11.12399,2.616-11.148,.009-.021,.864-2.061,3.447-2.148,.759-.027,1.308,.156,1.632,.54,.558,.66,.34501,1.737,.34501,1.74-.93,3.945-2.48701,10.608-2.48701,10.923v.393h6.855l2.742-12.72c.291-1.344,.129-2.466-.483-3.336-.786-1.131-2.292-1.839-4.599-2.166Z" fill="#fff"/>
  <path d="M86.03908,67.296l-4.449,18.12601h7.446l4.554-18.12601h-7.551Z" fill="#fff"/>
  <path d="M127.74208,67.395c-5.871-.195-12.73501,.969-13.764,11.79-.147,1.533,.351,2.94,1.44,4.065,1.68,1.74,4.392,2.481,6.513,2.481,.162,0,.321-.006,.47399-.012l.474-.024c3.471-.183,7.791-.408,10.641-5.496l.33-.585-7.104,.006-.081,.288c-.429,1.518-2.835,2.154-3.537,2.079-2.313-.249-2.601-1.35-2.53499-3.942h13.479l.08099-.291c.50701-1.857,.708-3.105,.708-4.443-.006-4.29-4.797-5.838-7.11899-5.916Zm-6.471,6.561c.207-.813,.88501-1.536,1.92-2.028,1.626-.771,3.609-.756,4.713,.036,.65401,.46799,.96301,1.167,.92701,2.082l-7.56-.09Z" fill="#fff"/>
  <path d="M344.07508,55.179l3.38699-12.216h-34.81801c.30602-1.047,.72301-2.964,1.07401-4.56,.18901-.873,.372-1.71,.48001-2.136l34.617-.003,.087-.273c.78298-2.418,3.14399-9.975,3.168-10.053l.159-.51h-35.02201c.53101-1.635,1.299-4.731,1.539-5.712h35.21999l3.81001-12.216h-54.88202l-14.292,47.679h55.47301Z" fill="#fff"/>
  <path d="M147.84508,79.704c-.432,1.518-2.83801,2.16-3.537,2.079-2.313-.249-2.601-1.35-2.535-3.942h13.479l.081-.291c.507-1.857,.708-3.105,.708-4.443,0-4.284-4.794-5.832-7.113-5.91-5.871-.189-12.73501,.969-13.764,11.79-.147,1.533,.351,2.94,1.443,4.065,1.68,1.74,4.392,2.481,6.513,2.481,.162,0,.321-.006,.474-.012l.47399-.024c3.471-.183,7.791-.408,10.641-5.496l.33-.585-7.104,.006-.09,.282Zm-3.471-7.971c1.626-.774,3.609-.756,4.713,.036,.65401,.468,.963,1.167,.93,2.082l-7.563-.093c.207-.81,.88799-1.533,1.92-2.025Z" fill="#fff"/>
  <path d="M86.34808,65.424h7.743l1.074-4.629h-7.743l-1.074,4.629Z" fill="#fff"/>
  <path d="M171.64108,72.72l.12-.381c.006-.021,.67799-2.163,1.19699-4.464l.078-.348-.339-.114c-.054-.018-1.34101-.426-3.807,.399-1.09501,.366-2.121,1.131-2.853,1.779l.621-2.199h-6.957l-.396-.021v.393c-.057,.555-2.51101,10.509-4.146,17.067l-.123,.489h7.353l2.523-10.776c1.518-3.465,6.147-2.013,6.34499-1.95l.38401,.126Z" fill="#fff"/>
  <path d="M110.58208,55.959c1.374,.273,3.849,.429,6.813,.429,3.258,0,7.11-.189,10.737-.624,24.933-2.97,29.63101-21.807,34.17301-40.02,.63599-2.55,1.293-5.187,1.998-7.746l.13799-.498h-19.02l-.09,.27c-1.599,4.806-2.748,9.561-3.765,13.758-3.291,13.59-5.67,23.409-19.212,23.409-6.129,0-9.108-2.19-9.108-6.699,0-1.761,6.27-22.416,8.688-30.228l.159-.51h-19.44901l-9.195,33.069c-.714,8.367,4.251,12.828,17.133,15.39Z" fill="#fff"/>
  <path d="M45.14908,37.842h24.9l-5.574,17.73h18.456L97.25308,7.5h-18.249l-4.752,16.155h-24.912l4.749-16.155h-18.639l-14.493,48.072h19.044l5.148-17.73Z" fill="#fff"/>
  <path d="M57.94108,69.654c-.792-1.125-2.295-1.833-4.599-2.16-2.565-.36-5.109,1.344-6.435,2.43l.534-2.433h-7.134l-4.659,17.829h7.749l.075-.297c.642-2.499,2.421-10.737,2.418-10.755,.009-.021,.864-2.061,3.447-2.148,.759-.027,1.308,.15599,1.632,.54,.558,.66,.345,1.737,.345,1.74-.891,3.834-2.388,10.311-2.388,10.626v.393h6.855l2.643-12.426c.294-1.344,.129-2.469-.483-3.339Z" fill="#fff"/>
  <path d="M83.96008,67.797l.141-.50101h-7.032l-.51,1.353c-.774-.489-2.541-1.377-5.244-1.452-4.227-.129-6.93,1.647-8.451,3.147-2.115,2.085-3.297,4.962-3.24,7.896,.084,4.44,2.721,6.888,7.425,6.888,2.475,0,4.512-1.158,5.616-1.95-.795,3.318-2.004,4.647-4.26,4.806-1.944,.138-3.366-.633-3.534-1.917l-.045-.342-6.708-.006,.021,.414c.003,.057,.375,5.628,8.109,5.793,.348,.006,.684,.012,1.014,.012,10.716,0,11.673-3.957,14.361-15.054,.639-2.637,1.362-5.622,2.337-9.087Zm-9.831,9.042c-.97799,3.46799-2.355,4.602-4.92,4.056-1.626-.351-2.313-1.821-2.046-4.38,.153-1.461,.66-4.101,2.325-5.364,.594-.45,1.29-.675,2.076-.675,.243,0,.492,.021,.753,.063,.72,.12,1.278,.483,1.659,1.08,.717,1.119,.774,3.021,.153,5.22001Z" fill="#fff"/>
  <path d="M23.30008,76.062h12.579l1.386-5.517h-12.456l1.359-4.728h12.87l1.404-5.121H19.82308l-6.747,24.627h20.826l1.179-4.926h-12.954l1.173-4.335Z" fill="#fff"/>
  <path d="M275.54308,67.005c-3.828-.05099-7.11301,1.152-9.46799,3.468-2.175,2.136-3.42,5.109-3.42,8.151,0,4.194,3.3,6.798,8.61298,6.798,4.52401,0,7.998-1.179,10.32301-3.50101,2.01302-2.007,3.06901-4.851,3.06001-8.22-.02401-6.078-4.51202-6.642-9.10801-6.696Zm1.131,9.999c-1.05599,2.772-2.211,4.332-4.97699,4.083-.717-.063-1.27201-.366-1.65001-.9-.624-.879-.72299-2.31-.27901-4.023,.867-3.345,1.96802-5.439,4.668-5.439,.14401,0,.29702,.006,.45,.018,.85501,.069,1.53001,.453,1.94701,1.11,.72901,1.143,.672,2.97-.159,5.151Z" fill="#fff"/>
  <path d="M408.70706,82.005c0-.627-.36896-.933-1.14899-.933h-1.27199v3.264h.51302v-1.404h.53998l.89401,1.404h.549l-.93901-1.443c.48601-.051,.86398-.297,.86398-.888Zm-1.37398,.516h-.53398v-1.038h.67497c.34502,0,.72002,.066,.72002,.501,0,.513-.41103,.537-.86101,.537Z" fill="#fff"/>
  <path d="M382.19009,67.104c-2.63402-.372-5.26501,1.449-6.55502,2.526l.31501-2.433h-6.504l-4.34702,18.126h6.94801l.075-.297c.63899-2.496,2.616-11.12399,2.616-11.148,.009-.021,.86398-2.061,3.44698-2.148,.747-.024,1.30801,.156,1.63202,.54,.55799,.66,.34499,1.737,.34499,1.74-.92999,3.945-2.48701,10.608-2.48701,10.923v.393h6.85501l2.742-12.72c.28798-1.344,.126-2.466-.48301-3.336-.786-1.131-2.292-1.839-4.59899-2.166Z" fill="#fff"/>
  <path d="M358.43607,66.744l-.72899-.039c-9.255-.519-10.206,5.106-10.212,5.163l-.06901,.459,6.3-.114v-.387c0-.003,.01801-.39,.39301-.747,.51599-.486,1.467-.702,2.751-.633,.36301,.021,.61501,.135,.77099,.354,.165,.228,.38102,.807,.033,2.133-.999,.07199-2.049,.081-3.15601,.09-3.44398,.03-7.005,.06-9.01199,2.118-1.10099,1.128-1.60799,2.724-1.55999,4.875,.081,3.402,2.52599,4.869,4.788,5.106,3.672,.384,5.40598-.54,6.86098-1.605-.31199,.717-.48598,1.182-.27898,1.527,.09599,.159,.255,.258,.48898,.276h6.369l.06001-.321c.582-3.111,1.19998-5.547,1.69798-7.506,.60901-2.4,1.08902-4.293,1.17902-6.141,.204-4.242-1.80901-4.35-6.67502-4.608Zm-1.72799,12.567c-.408,1.518-2.73301,2.382-4.461,2.112-.77701-.123-2.07001-.567-1.98601-2.187,.05402-1.065,.44701-1.869,1.19701-2.46,1.122-.882,2.829-1.095,4.206-1.095,.77701,0,1.44601,.066,1.84799,.117-.14999,.732-.48299,2.307-.80399,3.513Z" fill="#fff"/>
  <path d="M420.9201,11.439c-1.56903-1.87201-4.72801-4.08601-10.87802-3.93001-3.30899,.048-46.59899,0-46.59899,0l-14.22901,47.86801h19.18801l5.18999-15.891h16.629c1.30801,0,2.625-.003,3.11098,.642,.27603,.366,.291,.981,.04504,1.83l-3.84002,13.218h21.90301l.07201-.306c.291-1.23,2.85599-12.045,2.92799-12.762,.33-3.315-.06299-5.385-1.27501-6.72-1.31099-1.44-3.48601-1.881-6.369-2.01,.033-.006,.06601-.015,.09901-.021,5.39699-1.125,13.55699-2.826,15.89699-14.052,.59399-2.868-.08702-5.736-1.87198-7.866Zm-17.082,11.421c-.41103,3.927-5.289,4.512-8.16302,4.512h-18.627l2.334-7.848h19.85999c1.84804,0,3.168,.42,3.92102,1.254,.74098,.816,.70198,1.8,.67502,2.082Z" fill="#fff"/>
  <path d="M337.29808,66.903c-3.31799-.069-5.577,1.014-6.759,1.764l.336-1.272h-7.55699l-5.835,23.742h7.542l1.95298-7.587c.89701,.996,2.98201,2.652,6.61501,2.064,2.90701-.468,8.03101-2.295,9.72601-9.261,.51899-2.139,.336-5.211-1.248-7.248-1.10701-1.425-2.712-2.166-4.77301-2.202Zm-.97199,10.698c-.93601,2.514-2.079,4.029-4.839,3.78-.717-.063-1.27201-.366-1.65001-.9-.624-.879-.72299-2.31-.27901-4.023,.867-3.345,1.96802-5.439,4.668-5.439,.14701,0,.29702,.006,.45,.018,.783,.063,1.38602,.414,1.794,1.047,.76801,1.197,.71702,3.21-.14399,5.517Z" fill="#fff"/>
  <path d="M398.68409,76.521l-1.668-9.126h-7.22701l2.81701,17.628-4.63502,6.111h7.04102l16.58698-23.739h-6.70798l-6.207,9.126Z" fill="#fff"/>
  <path d="M407.3871,79.914c-1.54202,0-2.832,1.2-2.832,2.778,0,1.60501,1.293,2.811,2.832,2.811,1.52998,0,2.81396-1.203,2.81396-2.811,0-1.578-1.28398-2.778-2.81396-2.778Zm0,5.178c-1.31401,0-2.31903-1.032-2.31903-2.4,0-1.338,1.00502-2.367,2.31903-2.367,1.299,0,2.30397,1.029,2.30397,2.367-.00298,1.368-1.008,2.4-2.30397,2.4Z" fill="#fff"/>
  <path d="M220.19309,68.553c-.77401-.489-2.541-1.377-5.244-1.452-4.21799-.129-6.93002,1.647-8.451,3.147-2.11501,2.085-3.297,4.962-3.24001,7.896,.084,4.44,2.72102,6.888,7.425,6.888,2.47501,0,4.51202-1.158,5.616-1.95-.792,3.318-2.004,4.647-4.25999,4.806-1.94401,.141-3.366-.63-3.534-1.917l-.045-.342-6.708-.006,.02101,.414c.003,.057,.375,5.628,8.10899,5.793,.34801,.006,.68401,.012,1.01402,.012,10.716,0,11.67599-3.957,14.36098-15.054,.63902-2.634,1.35901-5.619,2.337-9.084l.14101-.50101h-7.03201l-.50999,1.35Zm-2.42702,8.187c-.97799,3.468-2.35499,4.605-4.92,4.056-1.626-.351-2.31299-1.821-2.046-4.38,.15301-1.461,.66-4.101,2.325-5.364,.59399-.45,1.29-.675,2.076-.675,.243,0,.492,.021,.753,.063,.71999,.12,1.27801,.483,1.662,1.08,.714,1.119,.76799,3.021,.14999,5.22Z" fill="#fff"/>
  <path d="M201.88108,69.267c-.789-1.128-2.298-1.836-4.605-2.166-2.643-.372-5.26499,1.449-6.55499,2.526l.315-2.433h-6.504l-4.347,18.126h6.945l.075-.297c.642-2.496,2.61599-11.124,2.61599-11.148,.00901-.021,.86401-2.061,3.44701-2.148,.759-.027,1.308,.156,1.632,.54,.558,.66,.34501,1.737,.34501,1.74-.93,3.945-2.48701,10.608-2.48701,10.923v.393h6.855l2.74202-12.72c.297-1.344,.13499-2.466-.47401-3.336Z" fill="#fff"/>
  <path d="M319.86808,71.235c0-1.725-.82201-3.81-4.73701-3.939-4.72499-.159-7.27199,1.668-8.259,2.59501-.40201-.906-1.47299-2.388-4.209-2.496-3.333-.12-5.55599,1.065-6.73201,1.962l.492-1.962h-8.244l-4.245,17.928h8.13902l2.65199-11.181c.01202-.087,.327-2.136,2.961-2.019,.87902,.027,1.50602,.261,1.86301,.69,.43201,.522,.336,1.194,.336,1.194l-2.48099,11.313h7.134l2.85901-11.085c.009-.087,.27599-2.118,2.80199-2.118,.05099,0,.10499,.003,.15601,.003,.86098,.027,1.47899,.261,1.836,.693,.462,.552,.36298,1.287,.36298,1.287l-2.69099,11.223h6.756l3.23701-13.998,.01199-.09Z" fill="#fff"/>
  <path d="M183.66208,60.696h-7.743l-1.07399,4.629h7.74299l1.07401-4.629Z" fill="#fff"/>
  <path d="M174.63509,67.197l-4.44901,18.126h7.446l4.554-18.126h-7.55099Z" fill="#fff"/>
  <path d="M253.19609,76.569c-1.254,2.391-2.92802,3.447-5.60101,3.531-2.496,.09-4.248-1.518-4.44299-4.068-.15001-1.947,1.002-6.969,3.747-9.624,1.332-1.29,2.85899-1.851,4.52998-1.677,3.207,.336,3.40201,1.389,3.65101,2.721l.123,.63h8.09399l.048-.339c.00902-.066,.84302-6.708-6.753-7.827-6.411-.948-11.47499,.024-15.06299,2.886-4.39501,3.504-5.67902,9.132-5.97901,13.236-.18599,2.55,.47401,4.68,1.962,6.33,1.73101,1.92,4.506,3.039,7.80901,3.15,.42599,.015,.84,.021,1.251,.021,8.05799,0,12.834-2.847,14.586-8.676l.15298-.507h-8.004l-.11098,.213Z" fill="#fff"/>
  <path d="M205.59807,28.623l-13.12199-21.123h-21.897l-14.493,48.072h20.235l6.57001-23.079,14.691,23.079h20.703l13.88699-48.072h-20.01299l-6.56101,21.123Z" fill="#fff"/>
  <path d="M243.92907,55.572h20.03101l9.702-33.294h19.992l4.39199-14.778h-61.008l-4.59899,14.973h21.19199l-9.702,33.099Z" fill="#fff"/>
</svg>