<?xml version="1.0" encoding="UTF-8" standalone="no"?>
<!-- Created with Inkscape (http://www.inkscape.org/) -->

<svg
   width="12.464811mm"
   height="10.583333mm"
   viewBox="0 0 12.464811 10.583333"
   version="1.1"
   id="svg5"
   xml:space="preserve"
   xmlns="http://www.w3.org/2000/svg"
   xmlns:svg="http://www.w3.org/2000/svg"><defs
     id="defs2" /><g
     id="layer1"
     transform="translate(-140.89893,-176.74059)"><g
       style="fill:none"
       id="g1128"
       transform="matrix(0.26458333,0,0,0.26458333,140.89893,176.74059)"><g
         id="Vector"><path
           d="m 37.9254,36.8587 c 1.2173,-0.7834 2.3477,-1.6922 3.3655,-2.7162 3.5967,-3.621 5.8199,-8.6176 5.8202,-14.1426 C 47.1108,14.475 44.8876,9.47851 41.2909,5.85754 37.6931,2.23745 32.7293,2.81089e-4 27.2408,0 21.7522,2.81089e-4 16.7884,2.23745 13.1907,5.85754 12.3,6.75425 11.4942,7.73581 10.7848,8.78838 H 11.979 C 15.4108,4.07721 20.9521,1.0154 27.2074,1.0154 c 10.418,0 18.8632,8.48629 18.8632,18.9547 0,6.4384 -3.1974,12.1232 -8.0808,15.5489 v -4.4062 h 0.7742 c 0.4868,0 0.8814,-0.3965 0.8814,-0.8857 0,-0.4891 -0.3946,-0.8856 -0.8814,-0.8856 h -2.5369 v 7.1878 c 0,0.0295 0.0058,0.0574 0.0086,0.0862 -0.7116,0.3906 -1.453,0.7325 -2.2165,1.0298 v -6.5325 h 0.6217 c 0.4867,0 0.8814,-0.3965 0.8814,-0.8857 0,-0.4891 -0.3947,-0.8856 -0.8814,-0.8856 h -2.3845 v 8.8908 c -0.5454,0.152 -1.1006,0.2793 -1.6646,0.3821 l -10e-5,-9.2729 h -6.8125 v 9.265 C 23.2577,38.5102 22.7436,38.3934 22.238,38.255 v -8.9135 h -2.3842 c -0.4868,0 -0.8814,0.3965 -0.8814,0.8856 0,0.4892 0.3946,0.8857 0.8814,0.8857 h 0.6214 l 10e-5,6.564 c -0.7603,-0.292 -1.4984,-0.629 -2.2077,-1.0134 v -7.3219 h -2.5372 c -0.4868,0 -0.8813,0.3965 -0.8813,0.8856 0,0.4892 0.3945,0.8857 0.8813,0.8857 h 0.7745 V 35.576 C 11.5761,32.1566 8.34415,26.4438 8.34415,19.9701 c 0,-0.7103 0.04218,-1.4105 0.11793,-2.1005 -0.33538,-0.0591 -0.65086,-0.1411 -0.94814,-0.238 -0.09114,0.7771 -0.14336,1.5663 -0.14342,2.3683 2.8e-4,5.525 2.22341,10.5216 5.82018,14.1426 1.0059,1.0121 2.1219,1.9115 3.3231,2.6888 0.395,0.2556 0.7968,0.5012 1.2103,0.7287 0.9312,0.5124 1.9088,0.9487 2.9229,1.3078 0.323,0.1144 0.6499,0.2199 0.9803,0.3177 1.7804,0.5268 3.6628,0.8144 5.6135,0.8145 1.9814,-1e-4 3.8928,-0.2957 5.6979,-0.8387 0.2899,-0.0872 0.5767,-0.1815 0.8608,-0.2816 1.1244,-0.3957 2.2017,-0.8902 3.2235,-1.4734 0.3061,-0.1746 0.6067,-0.3574 0.9024,-0.5476 z m -10.718,2.0659 c -0.5617,0 -1.1162,-0.0295 -1.6654,-0.0778 v -7.734 h 3.287 v 7.7374 c -0.535,0.0458 -1.0748,0.0744 -1.6216,0.0744 z"
           fill="#572932"
           id="path1111" /><path
           d="m 2.95496,11.0672 c 1.59916,0.8053 3.18407,1.1845 4.67777,1.3562 0.197,0.0226 0.39249,0.0419 0.58614,0.0579 0.1996,0.0164 0.39733,0.0296 0.59297,0.04 0.35117,0.0186 0.69529,0.0282 1.03201,0.0323 0.13865,0.0017 0.27645,0.0028 0.41235,0.0028 0.3662,0 0.7215,-0.0055 1.0658,-0.0118 2.2277,-0.0411 4.3159,-0.5663 5.8739,-1.0944 1.6414,-0.5564 2.6941,-1.116 2.6941,-1.116 l 0.1389,0.2489 c 0,0 -0.4166,0.2987 -1.6658,0.904 -0.957,0.4637 -2.4024,1.1073 -4.5255,1.935 -1.6915,0.6596 -3.3384,1.0817 -4.7699,1.3521 -0.36802,0.0694 -0.72175,0.1289 -1.05834,0.1798 -0.20788,0.0314 -0.40902,0.0594 -0.60312,0.0846 -0.20773,0.027 -0.40733,0.0506 -0.59766,0.0713 -1.22112,0.1324 -2.06675,0.1435 -2.31434,0.1435 -0.04918,0 -0.07477,-5e-4 -0.07477,-5e-4 0,0 0.25565,0.3343 0.74654,0.7566 0.32863,0.2828 0.76328,0.6045 1.29802,0.8928 0.16948,0.0914 0.3485,0.1795 0.53795,0.2617 0.17316,0.0751 0.35515,0.1448 0.54467,0.2085 0.29645,0.0997 0.61168,0.184 0.94739,0.2445 0.37776,0.068 0.78003,0.107 1.20614,0.107 0.08139,0 0.16328,-0.0015 0.24666,-0.0043 3.85976,-0.1242 9.46436,-4.3286 9.46436,-4.3286 l 0.1854,0.2018 c -7.1052,6.6337 -9.83027,6.7022 -9.93971,6.7022 H 9.65344 c 0.96546,0.5677 1.90686,0.7861 2.78236,0.7861 2.9046,0 5.0918,-2.3996 5.0918,-2.3996 l 0.1235,0.1396 c -0.9571,2.2961 -2.0844,3.9562 -2.0844,3.9562 -0.3198,0.4418 -1.0878,0.6526 -1.2924,0.702 -0.0268,0.0065 -0.0386,0.0359 -0.0263,0.0603 l 0.4107,0.8138 h 3.7562 c 0.5981,-0.9702 3.4208,-7.602 3.8194,-8.4772 0.4302,0.2531 1.1856,2.6044 1.1856,2.6044 l 2.0252,5.9044 h 4.0292 c 0.6296,0 0.787,-0.0633 0.9652,-0.4218 0.1786,-0.3586 0.1051,-0.4955 -0.3565,-0.6536 -0.6926,-0.2531 -0.8396,-0.8647 -0.5248,-1.6555 0.2926,-0.7349 0.8201,-1.8874 0.8934,-2.0465 l 0.0546,0.011 5.1307,-0.0247 c 0.4384,1.1894 0.7729,2.1297 0.815,2.3449 0.1259,0.6433 -0.063,0.9912 -0.5981,1.1494 -0.5352,0.1581 -0.724,1.2968 -0.724,1.2968 h 7.4925 l 0.0524,-0.022 c 0.2604,-0.2748 0.3578,-0.7799 0.3814,-0.9276 0.0039,-0.0235 -0.0135,-0.042 -0.0374,-0.043 -0.8863,-0.0391 -1.4084,-0.6393 -1.6563,-1.1373 -0.2518,-0.5061 -2.5497,-6.1784 -3.1057,-7.7283 -0.5415,-1.509 -2.4851,-6.21619 -2.5876,-6.46392 L 35.6536,8.05273 h -5.3567 c -0.5548,0 -0.6337,1.04416 -0.6337,1.04416 1.5739,0.12653 2.4285,1.14981 1.8628,2.83271 L 28.3123,20.5259 24.5554,9.87531 C 24.379,9.37552 23.9086,9.04143 23.3806,9.04143 H 0 C 0.0129454,9.05294 0.0259129,9.06362 0.0388565,9.07506 1.0045,9.92972 1.98229,10.5774 2.95496,11.0672 Z M 32.9866,8.53928 c 0.1979,-0.075 0.9187,-0.16124 1.6245,0.19621 0,0 -0.5026,-0.00604 -0.6748,-0.02335 0.0258,0.18163 -0.135,0.48152 -0.6541,0.37488 C 32.763,8.98026 32.7886,8.61416 32.9866,8.53928 Z m 0.2533,4.69702 1.8515,4.8672 h -3.6212 z"
           fill="#572932"
           id="path1113" /><path
           d="M 40.6155,25.4653 H 13.7227 c -0.4636,0 -0.8394,0.3776 -0.8394,0.8434 0,0.4659 0.3758,0.8435 0.8394,0.8435 h 26.8928 c 0.4636,0 0.8394,-0.3776 0.8394,-0.8435 0,-0.4658 -0.3758,-0.8434 -0.8394,-0.8434 z"
           fill="#572932"
           id="path1115" /></g></g></g></svg>
