<?xml version="1.0" encoding="UTF-8"?>
<svg id="Layer_1" xmlns="http://www.w3.org/2000/svg" version="1.1" viewBox="0 0 612 729.6">
  <!-- Generator: Adobe Illustrator 30.0.0, SVG Export Plug-In . SVG Version: 2.1.1 Build 123)  -->
  <defs>
    <style>
      .st0 {
        fill: #fff;
      }
    </style>
  </defs>
  <path class="st0" d="M.7,537.6c0-.9,0-1.9.2-3.3.3-1.5.5-2.5.5-3.5v-158.9c0-1.2-.4-2.4-.7-3.6V11.7c1.1,0,2.3,0,4,.2,2.1.5,3.6.9,5.2,1.2,51.2,10.9,102.9,19,154.9,24.7,57.3,6.3,114.7,9.5,172.4,7.8,43.1-1.3,86.1-4.9,128.9-10.1,41.9-5.1,83.6-11.6,125-19.7,6.1-1.2,12.1-2.7,18.1-4h3.4c0,176.2,0,352.5-.2,529.1-2.6,18-9.6,33.3-21.9,46.1-8.4,8.7-18,16-28.3,22.3-25.6,15.8-53.1,27.6-81.1,38.1-50.1,18.8-100.5,36.9-150.8,55.3-7.4,2.7-14.8,5.6-22.3,8.4-.7,0-1.5,0-2.5-.2-34.3-12.4-68.3-24.5-102.2-36.8-38.5-14-77-27.8-114.3-44.9-18.7-8.6-37-18-53.4-30.8-16.3-12.7-28.4-28.2-32.7-48.8-.8-3.9-1.5-7.9-2.3-11.9M379,658.8c37.7-14.3,75.6-28.4,113.1-43.2,19.7-7.7,38.5-17.4,56.1-29.4,26.1-17.6,39.4-41.4,38.4-73.4-.8-25.6,0-51.2-.2-76.8,0-1.1,0-2.1-.2-3.3h-1.4c-39.1,6.4-78.1,13.2-117.2,18.9-25.8,3.8-51.7,6.1-77.7,8.8-14.4,1.5-28.7,3-42.7,6.8-13.5,3.7-25.2,10.9-36.8,18.4-2.8,1.8-4.9,2-7.6,0-19.7-14.1-41.9-21.4-65.9-23.8-29.2-2.9-58.4-5.7-87.5-9.7-32.9-4.5-65.6-10.1-98.4-15.3-7.9-1.3-15.8-2.8-23.9-4.3,0,1.1-.2,1.9-.2,2.7,0,28.8,0,57.6.2,86.4.2,17.6,5.9,33.2,17.6,46.6,8.3,9.5,18.3,17,29,23.6,24.1,14.7,49.9,25.8,76.3,35.6,51.3,19.1,102.7,37.6,154.2,56.2,1.7.6,4.1.4,5.9-.2,22.8-8,45.6-16.2,69-24.6M182.7,68.3c-12.2-1.5-24.4-2.7-36.6-4.6-37.9-6-75.7-12.2-113.5-18.3-5.1-.8-5.6-.6-5.6,4.8v163.9c0,8.7,0,9,8.5,10.4,35.1,5.8,70.2,11.5,105.4,17.2,3.6.6,4.1,0,4.2-3.8v-18.4c0-3.4.9-4.3,4.1-3.4,24.8,6.5,50.3,7.8,75.7,10.1,27.3,2.4,53.7,8.5,78.6,20.2,2.4,1.1,4.4,1.1,6.7,0,24.7-11.6,50.8-17.7,77.9-20.1,25.6-2.3,51.3-3.6,76.4-10.1,2.7-.7,4.1.2,4,3.2-.1,5.8,0,11.6,0,17.4s.3,5.7,5.7,4.9c36.5-6,72.9-12,109.4-18,2.4-.4,3.2-1.2,3.2-3.7V49.9c0-4.6-.5-4.9-4.9-4.2-27.9,4.6-55.8,9.9-83.8,13.6-38.1,5.1-76.3,9.6-114.6,13.5-35.1,3.6-70.4,5.1-105.7,3-31.4-1.8-62.8-4.8-94.9-7.3M246.3,254c-6.9-.9-13.7-2-20.6-2.7-16.8-1.6-33.5-3-50.3-4.7-3.3-.3-3.8,1.2-3.8,3.9v173.5c0,2.9.9,4,3.8,4.3,18.2,1.9,36.4,4.1,54.6,6,26.3,2.7,52.2,6.8,75.2,21.2.9.6,2.7.4,3.7,0,19.3-11.8,40.5-17.1,62.7-19.6,21.7-2.5,43.4-4.8,65.1-7.3,5.5-.6,5.5-.8,5.5-6.5v-167.3c0-8.3,0-8.2-8.2-7.5-17.7,1.6-35.4,2.9-53,4.8-25.2,2.6-49.1,9.4-71.1,22.2-2.4,1.4-4.1,1.1-6.2-.2-17.6-10.2-36.6-16.5-57.3-20.1M542.8,370.4c13.5-2.4,27.1-4.9,40.6-7.2,2.6-.4,3.2-1.6,3.2-4v-63.1c0-1-.2-1.9-.3-3-1,.1-1.7.1-2.3.2-37,6.1-74,12.2-111,18.2-3.4.5-4.6,1.6-4.6,5.1.1,20.1,0,40.3,0,60.4s.4,4.9,4.7,4.2c23-3.5,46.1-7.1,69.7-10.8M56.1,367.9c28.1,4.4,56.1,8.9,84.2,13.3,4.5.7,4.8.3,4.8-4.4v-60.1c0-3.6-1.2-4.8-4.7-5.4-31.3-4.9-62.7-9.9-94-14.9-6.4-1-12.7-2.3-19.2-3.5-.1,1-.3,1.7-.3,2.3v64.9c0,2.1.9,2.7,2.7,3,8.6,1.5,17.2,3.1,26.4,4.8h.1Z"/>
  <path class="st0" d="M.7,368.5c.2.9.7,2.1.7,3.3v158.9c0,1-.2,2-.5,3.2-.2-54.9-.2-110-.2-165.5h0Z"/>
  <path class="st0" d="M260.9,601.7c-2.8,3.6-6.4,4.8-10.5,3.5-4.4-1.4-6.8-4.9-7.5-9.4-1.8-11.7,7.9-22.2,20.6-22.5,7.5-.2,13.8,2.9,18.9,8.1,4.2,4.3,7.9,9.2,12.3,13.8-.9-2.5-1.8-5-2.5-7.5-2.3-8.1-5-16.1-6.8-24.2-2.1-9.6.1-18.7,5.5-26.7,3.9-5.7,8.5-10.9,12.9-16.3,1.9-2.4,3.9-2.4,5.9,0,4.2,5.3,8.6,10.3,12.5,15.7,8.9,12.4,7.7,26,3.4,39.5-2.1,6.7-5,13.1-7.5,19.7-.2.5-.2,1,.2,1.7,1.6-2.2,3.2-4.4,4.8-6.6,4.5-6.1,9.5-11.7,16.5-15,13.3-6.3,28.9,1.1,31.2,14.8.8,4.8-.2,9.1-3.8,12.6-5.1,5-13.5,3-15.2-3.9-1-3.9-3.5-4.4-6.6-4.3-6.1.4-11.8,2.6-16,6.8s-10.4,11.7-15.6,17.6c-1.3,1.5-1.2,2.8.3,4.1.9.8,1.7,1.8,2.6,2.7,2.8,3.1,3.1,7,.3,10.1-2.5,2.8-5.3,5.3-7.9,8-1.4,1.5-2.7,1.3-4.1,0-2.6-2.7-5.4-5.3-7.9-8-2.6-2.9-2.4-7.2.5-10.2,4.7-4.9,5.2-3.7.4-9.9-4-5.2-8.6-10-13.4-14.5-4.1-3.9-9.4-6-15.1-6.6-4.8-.5-5.9.3-7.4,4.7-.2.6-.6,1.2-1,2.1h0Z"/>
  <path class="st0" d="M530.3,539.4c-.5-2.9-2.6-3-4.5-3-5.5,0-10.2,2.5-14,6.2s-7.1,8-10.6,12c-1.6,1.8-1.3,3.3.3,5,4.3,4.4,4.2,6.8-.3,11.2-6.5,6.5-5.1,7.1-12.3-.4-4-4.2-3.9-6.4-.1-10.8.8-.9,1.6-3,1.2-3.7-5.2-7.8-10.8-15.3-20.2-18.6-1.3-.4-2.6-.7-4-.9-2.8-.3-5,.2-5.9,3.6-.8,3.2-3.5,4.8-6.7,4.9-3.5,0-6-2-7.4-5.1-3.1-6.7.9-15.5,8.6-18.8,6.4-2.7,12.7-2.2,18.1,2.1,4.5,3.6,8.3,8.1,12.4,12.2-.2-.9-.4-2.4-.9-3.6-3.2-8.1-5.9-16.2-6.1-25-.1-5.9,1.7-11.3,4.9-16,2.9-4.3,6.4-8.3,9.7-12.3,1.1-1.4,2.7-2.4,4.4-.7,7.4,7.6,14.7,15.5,15.3,26.6.4,6-1.2,12.2-2.6,18.1-1.2,5-3.5,9.7-5,14.9.8-.9,1.6-1.8,2.4-2.7,3.8-4,7.2-8.7,11.7-11.8,10.5-7.1,24.2-1.8,26.6,9.6.4,2.1.2,4.6-.4,6.7-1,3.7-4.2,6.1-7.4,6-3.5,0-6-2-7.2-5.6h0Z"/>
  <path class="st0" d="M82.9,540.5c-2.6,4-5.5,5.3-8.9,4.1-4-1.4-6.6-6-6-10.7,1.3-11,13.2-17.4,23.8-12.9,7,3,11.7,8.5,15.5,14.8.3.5.6,1.1,1.6,1.4-.4-1.3-.7-2.7-1.1-4-2.1-6.8-4.6-13.6-6.2-20.5-1.7-7.5-.5-14.8,3.9-21.2,3.1-4.5,6.6-8.7,10-12.9,1.1-1.4,2.7-2.7,4.3-1,7.9,8,15.5,16.5,15.8,28.5.3,9.3-2.9,18.1-6.7,26.6-.4.9-.8,1.8-.8,3.1.5-.4,1.1-.6,1.6-1.1,4.1-4.1,7.6-8.9,12.3-12.1,9.4-6.3,21.5-2.6,25.6,7.1,1.6,3.9,1.7,7.8-.6,11.4-1.6,2.6-4,4.2-7.1,3.8-3.2-.3-5.6-2.1-6.4-5.3-.6-2.7-2.5-3.3-4.8-3.2-5.4.2-10,2.4-13.7,6.1-3.9,3.8-7.2,8.2-10.8,12.3-1.5,1.7-1.2,3.1.3,4.7,4.4,4.7,4.3,6.8-.3,11.4-6.7,6.7-5.2,6.6-12.1-.4-4.2-4.3-4.1-6.4,0-11.1.8-.9,1.5-3,1-3.7-4.9-7.3-10.2-14.4-18.7-17.9-1.9-.8-3.9-1.2-5.9-1.4-2.8-.4-4.9.6-5.4,4.1h-.2Z"/>
  <path class="st0" d="M92.8,163.1c1.5-5.1,2.9-9.9,4.4-14.6.7-2.1.2-3.3-1.5-4.6-7-5.2-14-10.5-20.9-15.9-1.2-.9-1.7-2.6-2.5-3.9,1.4-.5,2.8-1.5,4.2-1.6,8.4-.3,16.8-.6,25.2-.5,3.2,0,4.6-1.2,5.5-4.1,2.6-8,5.4-15.9,8.3-23.8.5-1.3,1.8-2.2,2.8-3.3.9,1.1,2.3,2.1,2.8,3.4,3,8.1,5.8,16.3,8.5,24.5.8,2.4,2,3.4,4.6,3.4,8.5,0,17,.3,25.6.4.6,0,1.2,0,1.7.1,1,.4,2.6.9,2.7,1.6.1,1-.5,2.4-1.3,3.1-6.9,5.4-13.8,10.8-20.9,15.9-2.7,2-3.1,3.8-2.1,6.9,2.6,8,5,16.1,7.3,24.2.4,1.3,0,2.7-.1,4.1-1.4-.3-3.1-.2-4.3-1-6.9-4.6-13.8-9.3-20.4-14.2-3-2.3-5.1-2-8,.1-6.7,4.9-13.5,9.6-20.4,14.2-1,.7-2.6.6-4,.9,0-1.4-.6-2.8-.2-4,.9-3.6,2.1-7.2,3.3-11l-.3-.3Z"/>
  <path class="st0" d="M518.2,154.6c2,6.6,4,12.8,5.8,19.2.4,1.4,0,2.9,0,4.4-1.4-.3-3.1-.3-4.3-1.1-7.3-4.9-14.5-9.8-21.6-14.9-2-1.4-3.5-1.3-5.5,0-7.1,5.1-14.3,10.1-21.6,15-1.1.8-2.8.6-4.3.9,0-1.4-.5-2.9-.2-4.1,2.4-8.3,4.9-16.6,7.5-24.8.8-2.5.4-4.1-1.8-5.7-7.1-5.2-14-10.5-20.9-15.9-1-.8-1.4-2.3-2.1-3.5,1.2-.6,2.5-1.6,3.7-1.7,8.7-.3,17.5-.5,26.3-.5s3.9-.8,4.7-3.3c2.7-8.2,5.6-16.4,8.5-24.5.5-1.3,1.8-2.3,2.7-3.4,1,1.2,2.4,2.2,2.9,3.5,3,8.1,5.8,16.3,8.6,24.4.8,2.3,2,3.2,4.4,3.2,8.6,0,17.3.2,25.9.5,1.5,0,2.9,1.2,4.4,1.8-.8,1.2-1.4,2.8-2.5,3.6-6.5,5.1-13.1,10.2-19.8,15-2.6,1.9-3.7,3.7-2.3,6.8.7,1.4.9,3,1.5,4.8v.3Z"/>
  <path class="st0" d="M261,141.8c-.3-3,1.6-3.1,3.5-3.1,8.3,0,16.6-.2,24.9,0,3.7,0,5.7-1,6.8-4.8,2.3-8,5.1-15.8,7.9-23.6.4-1.2,1.7-2.1,2.6-3.2,1,1.1,2.4,2,2.9,3.2,2.9,8.1,5.7,16.3,8.2,24.6.9,2.8,2.4,3.8,5.2,3.8,8.6,0,17.3,0,25.9.2,1.3,0,2.5,1,3.7,1.5-.7,1.2-1,2.8-2,3.5-7,5.3-14,10.5-21.1,15.6-2.2,1.6-2.7,3.1-1.8,5.8,2.8,8.2,5.3,16.4,7.7,24.7.4,1.3-.2,2.9-.3,4.3-1.4-.4-3.1-.4-4.2-1.2-7.2-5-14.4-10-21.4-15.2-2-1.5-3.4-1.5-5.4,0-7.1,5.2-14.4,10.4-21.7,15.4-1,.7-2.6.7-3.9,1-.1-1.4-.7-2.8-.4-4,2.5-8.3,5-16.5,7.8-24.7,1-2.9.5-4.5-2-6.2-6.6-4.6-13-9.5-19.5-14.3-1.2-.9-2.2-1.9-3.4-3.1v-.2Z"/>
</svg>