<?xml version="1.0" encoding="UTF-8"?>
<svg id="svg3003" xmlns="http://www.w3.org/2000/svg" xmlns:svg="http://www.w3.org/2000/svg" xmlns:sodipodi="http://sodipodi.sourceforge.net/DTD/sodipodi-0.dtd" xmlns:rdf="http://www.w3.org/1999/02/22-rdf-syntax-ns#" xmlns:inkscape="http://www.inkscape.org/namespaces/inkscape" xmlns:dc="http://purl.org/dc/elements/1.1/" xmlns:cc="http://creativecommons.org/ns#" version="1.1" viewBox="0 0 297.5 299">
  <!-- Generator: Adobe Illustrator 29.8.2, SVG Export Plug-In . SVG Version: 2.1.1 Build 3)  -->
  <defs>
    <style>
      .st0, .st1 {
        fill: #fff;
      }

      .st1 {
        isolation: isolate;
        opacity: 1;
      }
    </style>
  </defs>
  <sodipodi:namedview id="namedview3015" bordercolor="#666666" borderopacity="1" gridtolerance="10" guidetolerance="10" inkscape:current-layer="svg3003" inkscape:cx="108.82718" inkscape:cy="219.77498" inkscape:pageopacity="0" inkscape:pageshadow="2" inkscape:window-height="750" inkscape:window-maximized="1" inkscape:window-width="1280" inkscape:window-x="-8" inkscape:window-y="-8" inkscape:zoom="2.3162919" objecttolerance="10" pagecolor="#ffffff" showgrid="false"/>
  <g id="g4381">
    <path id="inner_artwork" class="st0" d="M147.9,54.2c5.2,3,10.8,6.9,15,11l-1.7,1.7c-8.3-.9-17.1.2-25,.3-.9-.9-2.7-2.2-1-3.3l12.7-9.7h0ZM295.4,157.8c.1,3.8.5,7-1,10.9-15.2,4.3-25.3-11.8-40-9.4l1.7,8.4c13.7.4,22.2,13.6,36.4,13-2,4,.9,14.6-8,10.4-9.2-2.2-15.9-10.4-26-10.4-1.2,2.2-.4,5.3-.7,8,10.7,1.7,18.4,10.7,29,12.4-1,3.7-2,7.8-5,10-8.7-2.1-15.5-9.9-24.7-9.7l-1.6,7.7c8.8.2,14.5,8,22.4,10.3.2,3.2-2.7,6.1-4.3,9-7-2.1-12.4-8.1-20.4-7.7-.1-3,1.7-6.4,1-9.7-9,2.7-15-5.7-21.7-10.7-.2-16.4-17.5-27.2-18.4-42.5-.2-3.1.3-6.3,1.7-9.9,5.7-13.1,3.9-30.2-2.3-42.4-1.9-3.2-5.2-5.8-8.4-7.7,4.6,9.7,10.1,21.1,7.4,33-.3,9.2-5.7,18-5.8,26.9,0,3.2.7,6.3,2.5,9.5,7.2,13,20.3,25.4,15.4,41.7-1.3,5-5.4,8.9-6.4,14,8.5,7,16.5,14.9,27.7,15.4,4-2.6,1.8-13.9,10-8.7l12,6c-.9,3.2-3.6,6.1-6,8.3-4.6-2.2-9-4.9-14.7-4.7-1.7,1.8-3.1,3.8-3,6.3,4,.7,7.7,2.3,11,4.7-1.6,3.3-4.6,5.4-7.4,8l-9.3-3.3c-1.6,2.2-4.8,4.6-3.7,7,2.1.9,4.4,2.1,6,3.7-4.1,4.4-9.3,7.3-14.4,10.3-4.3-14.1-18.6-24-17.3-40.4l-.7-.7c-3.3,3.8-2.2,9.8-2,14.7,4,10.2,13.6,18.1,15,29.4-1.7,2.9-5.4,3.5-8.3,4.7.3-20.2-30.4-35.6-10.7-56.1,6.6-10,17.6-19.6,13.7-33.4-4-13.3-18.2-21.6-18-36.5v-1.2c3.2-15.6,13-32.2,5-48.7-2.2-6.7-7.2-14.2-14-17,10.1,11.6,14.1,30.5,8.3,46.1-2.9,6.2-6.9,13.6-7.3,20.9h0c-.2,3.8.6,7.6,3,11.2,7.7,12.5,21,26.2,13.3,42.4-8.7,13-23.8,26.2-15.4,43.4,6.1,10.2,15.6,20.4,13,33l-10,3.3c6.7-23.5-26-37.3-12.3-60.7,8.5-12.6,23.6-24.4,15-41-5.1-10.3-15.7-16.5-15.4-29.4l.4-2.2c3.4-18.3,17.4-35.7,7.6-55.2-2.6-5.8-7.7-11.7-13.3-15l-.3.3c11.4,11,14.8,29.1,8.7,43.7-2.9,8.5-9.1,17.1-10.4,26.2-.6,4.3,0,8.8,2.4,13.5,7.2,11.4,19.9,23.6,12,38.4-8.3,12.2-22.2,24.1-16.7,40,6.1,13.9,18.9,27.2,12,44.4l-10.3,2.3c8.2-16.8-4.1-33.5-11.3-48.1-8.8-20.9,18.9-30.9,19.3-50.1-.1-12.3-13.2-19.4-16-30.7-5.7-4.8-11.6,1.9-18.4.7-5,1-12.7-6.9-15.7,1.7-3.6,12.6-19.8,21.8-12.7,36.7,6.8,13.2,23.1,22.9,17.7,40.1-4.9,16-21,31.2-11,49.7-4.1-1.3-11.8,1.2-11.7-5.4-6.3-22.4,20.7-35.4,12.3-57.7-3.9-13.7-21.6-21.2-17.7-37.7,2.9-13.6,18.1-23,16-37.9-.2-1.2-.5-2.5-.9-3.8-5.7-16-17.3-32-10.4-50.7,1.9-5.3,5.7-9.9,9-14.7-11,5.9-16.6,18.4-16.3,31-.5,13.8,9.7,25.6,11.2,38.2.6,5.1-.3,10.3-3.8,15.8-7.2,9.8-16.7,20.1-12.3,33.1,4.1,13,20.4,20.9,19.4,36-.1,17.9-20.9,29-15,49.1l-10.4-3.4c-4.1-17.8,14.8-26.9,15-43.4,2.7-18.9-21.5-26-20-44.4-.1-14,12.2-22.9,17.7-34.7.9-2.9,1.2-5.6,1.1-8.2-.7-13-12.4-23.2-10.5-37.9.7-10.8,4.3-20.2,11.3-28.4-9.7,3.9-13.7,15-16.3,24.4-4.6,15,6.4,28.5,7.5,41.9.5,5.9-1,11.8-6.5,17.9-8,9.4-16.1,21.4-10.4,34.1,6.1,14,25.4,24.9,17,42.4-4.6,11-15.5,19.4-15,32.4-2.9-1.2-5.9-2.4-8.3-4.7,0-16.6,23.6-26.9,12.3-44.4-1,3.4-1.2,8.1-2,12-3.9,10.1-12.2,18.2-15.4,28.7-5.2-2-10.7-6.2-15-10.7l6-3.7c-.7-2.2-2.4-4.1-4-6-3.9-.5-6.5,2-9.7,3-2.8-2.5-5.5-4.7-7.7-7.7,2-5.7,17.6-1,9.7-10.3-5.3-3.3-10.7,1.4-15.4,3.7l-6.3-8c5.5-3.3,10.9-8,17.7-6.7,1.7,3,1.8,7.4,5,9,11.5-.2,19.6-8.9,28.4-15.7-6.1-9.1-11.1-21.7-5.7-32.7,4.4-11,15.7-20.3,16.2-32.5.1-2.8-.3-5.7-1.5-8.8-6-15.5-8.1-36.4,3.3-50.1-6.2,1.7-9.9,9.4-12,15.3-6.9,15.1,1.8,29.1,2.1,43.6,0,2.6-.2,5.2-.8,7.8-5.9,11.9-15.5,22.3-17,36-6.8,4.3-12.4,11.9-22,9.3-.3,2.6.4,6.5,1.3,9.3-7.7-.3-12.9,5.3-19.4,8-3.4-1.1-4.3-5.6-5.7-8.7,7.6-2.6,13-10.1,21.7-10,1-2.8-.6-5.4-1-8-10.8-4.8-27.9,23.7-29.3-1,10.8-.7,17.7-10.7,28.4-11.7l.3-8c-12.1-1.2-19.9,11.2-32,10l-2.7-10.7c14,.9,22.4-11.7,35.7-12.4,1.8-2.3,2-5.8,2.3-9-14.6-1.9-24.6,14.3-40,9.3,0,0-.5-6.7-.8-10.5h0c-.1-1.5-.2-2.5-.2-2.5,13.8,5.4,25.9-4.6,37.7-9.7,3-.9,7.7.7,9-2.7-.1-2.6,4.5-5.6.7-7.3-17.3-2.3-28.7,18.5-46.4,9l-1.3-2.7C5.4,91.7,33.8,43.1,80.8,19.2,99.9,8.3,123.5,2.7,147.4,2.5c28.8-.2,57.9,7.3,79.6,22.6,21,12.9,41.1,34.2,52.1,55.7,10.4,18.9,15.2,40.1,16.7,62.7-18.2,13.8-30.5-13-49.1-7,1,2.9,1.6,5.9,3.7,8.3,16.5-.1,27.8,17.1,45,10.3v2.5h0ZM85.8,95.9c-11.6-7.6-26.2-.4-37,3.7-1-10.1-5.1-19.4-13.7-26-.8-.4-2-1.3-3-1.3-.6,0-1.2.2-1.7,1,3.9,23.9-11.7,40.6-22.7,58.7,3.7,3,9.6,2.6,14,1.7,11.7-4.7,22.8-12.8,36.7-10,4.1-7,11-13.8,16.7-19.4,3.5-3,8.2-4.9,10.7-8.3h0ZM121.2,110.9c-.2,1.4.1,4,2.3,3,3.5-4.8,9.6-1,13.3-.7v-1.3c-2.1-3.3-6.3-4.9-10.7-4.7-1,0-2,.2-3,.4-1.5.3-2.5,1.6-2,3.3h0ZM175.6,96.6c-3.1-6.9-10.2-9.7-16.7-11.4-3.2-.4-6.5-.7-9.7-.7-.6,0-1.2,0-1.8,0-9.1.2-17.8,2.5-23.2,10-.8,2.1-4.1,5.1-1,7,7-.4,15-1.3,19.7,4.7,0,5.3,3.5,12.5-2.3,15-4.8-4.4-10.5,1.9-15.7-1.7-2.5-1.4-4,.2-5,2.4-1.4,13.8,5.8,29,18.7,36.7,5.2,1.9,12.3,3.7,17.7,1,13.1-6.1,18.6-20.1,21-33-.3-2.5-.2-7.2-3.7-7.4-3.9,2.5-9.6,1-13.7,0-2.4.8-2.6,4.4-5.3,5l-1.7-1.3c-1.4-6.1-2.3-14.8,3.3-19,6.3-2.6,13.8-3.7,20.4-1.7,1.2-2.1-.7-3.8-1-5.7h0ZM168.9,107.6c-.4,0-.9,0-1.3,0-2.3,1.6-9.1.4-6.7,5.7,4.2-3.3,10.1-1,14.4.7,1.6-.8,1.2-2.3,1.3-3.7-1.4-2.5-4.6-2.8-7.7-2.7ZM217.3,60.5c-8.2-.4-15.1,4.2-22.7,6.4-.7-6.4,4.2-13.2,5.3-19.7-12.2.8-21.9,8.1-32,14-2.3-5.7-4.7-11.3-7-17l13.3-12.7.3-1.7-18-1c-3.1-5.4-4.3-12-8-17-3,5.7-5,11.7-8,17.3l-18,1v1.3l13.7,12.3c-1.7,6.3-3.2,13.2-7.3,18-8-4.8-15.9-10-24.7-13.3-2.1-.7-5.1-1.8-7-.3,2.8,6.1,6.7,12.7,6,19.4-3.7-.7-6.6-3-10-4-4.1-1.1-9-3.3-13-2,6.7,9.3,12.1,19.1,14,30.4,22.1-10.7,48-16.6,74.8-12,12.6,2,24.1,7.1,35.4,11.3.4-11.8,7.9-21.3,13-30.7h0ZM255.4,124.6c11.3,3,22.7,15.4,34.7,7.3-10.5-17.4-26-33.4-21.7-56.1.5-1.5-.5-3.1-2-3.3-6.8,2.8-12,9.5-14.7,16-1.1,3.9-1.8,8-3.3,11.7-8.1-4.2-16.8-8.3-26.7-7.3-3.6.4-8.7.7-9.3,4.3,11.2,6,20.5,16,27.4,26.7,4.8-.8,10.7-.1,15.7.7h0ZM136.6,140.3l.3,2c4.3,2.9,5.7,7.8,11.7,7.4,5.3.3,9.3-4.7,12-8.7-7.2-1-16,.5-24-.7h0ZM142.6,131.3c.2.9-.6,2.2.7,2.7,3.6-.8,10,1.9,12-2.3-1.4-1.6-3.7-2.3-6-2.3-2.4,0-4.8.7-6.6,1.9Z" inkscape:connector-curvature="0"/>
    <g id="g4377">
      <path id="rect3815" class="st1" d="M136.6,127.4h24.4v10h-24.4v-10Z"/>
      <path id="path3032-6" class="st0" d="M141.1,132.8c3.2.7,3.9,1.9,6.4,2.2,2.6,0,2.3-.6,6.9-2.2.3-.1.7-.8.2-1.3-2.9-2.8-4.9-.8-6.6-.8-2.4,0-4.6-2-7,.6-.4.5-.6,1.1,0,1.4h0Z" inkscape:connector-curvature="0" sodipodi:nodetypes="cccsccc"/>
    </g>
  </g>
  <g id="text4354">
    <path id="path4430" class="st0" d="M432.1,275.6v-14.3h-5.1v-2.9h13.7v2.9h-5.1v14.3h-3.5Z"/>
    <path id="path4432" class="st0" d="M442.8,275.6v-17.2h5.2l3.1,11.7,3.1-11.7h5.2v17.2h-3.2v-13.5l-3.4,13.5h-3.3l-3.4-13.5v13.5h-3.2Z"/>
  </g>
</svg>